<svg width="16" height="17" viewBox="0 0 16 17" fill="none" xmlns="http://www.w3.org/2000/svg">
<path d="M10.3567 5.46415L5.64337 10.1783C5.56378 10.2552 5.50029 10.3471 5.45662 10.4488C5.41294 10.5505 5.38996 10.6598 5.38899 10.7705C5.38803 10.8811 5.40912 10.9909 5.45102 11.0933C5.49292 11.1957 5.5548 11.2887 5.63304 11.367C5.71128 11.4452 5.80433 11.5071 5.90674 11.549C6.00915 11.5909 6.11889 11.612 6.22954 11.611C6.34019 11.6101 6.44954 11.5871 6.55121 11.5434C6.65288 11.4997 6.74483 11.4362 6.8217 11.3567L11.5359 6.64332C12.0047 6.17444 12.2682 5.5385 12.2682 4.8754C12.2682 4.21231 12.0047 3.57637 11.5359 3.10749C11.067 2.63861 10.431 2.37519 9.76795 2.37519C9.10485 2.37519 8.46892 2.63861 8.00004 3.10749L3.28587 7.82165C2.89093 8.20676 2.57639 8.66645 2.3605 9.17407C2.14461 9.68168 2.03166 10.2271 2.0282 10.7787C2.02474 11.3303 2.13085 11.8771 2.34037 12.3874C2.54988 12.8977 2.85863 13.3613 3.24872 13.7513C3.6388 14.1413 4.10244 14.45 4.61275 14.6595C5.12306 14.8689 5.66988 14.9749 6.22148 14.9714C6.77309 14.9679 7.3185 14.8548 7.82609 14.6389C8.33367 14.4229 8.79332 14.1083 9.17837 13.7133L13.8925 8.99999L15.0709 10.1783L10.3567 14.8925C9.815 15.4342 9.17191 15.8639 8.46414 16.1571C7.75637 16.4502 6.99779 16.6011 6.2317 16.6011C5.46562 16.6011 4.70704 16.4502 3.99927 16.1571C3.2915 15.8639 2.6484 15.4342 2.1067 14.8925C1.565 14.3508 1.1353 13.7077 0.84213 12.9999C0.548962 12.2922 0.398071 11.5336 0.398071 10.7675C0.398071 10.0014 0.548962 9.24282 0.84213 8.53505C1.1353 7.82729 1.565 7.18419 2.1067 6.64249L6.8217 1.92915C7.60754 1.17016 8.66005 0.750186 9.75254 0.759679C10.845 0.769172 11.8901 1.20738 12.6626 1.97991C13.4351 2.75244 13.8733 3.7975 13.8828 4.88998C13.8923 5.98247 13.4724 7.03498 12.7134 7.82082L8.00004 12.5367C7.76781 12.7688 7.49214 12.953 7.18875 13.0786C6.88536 13.2042 6.5602 13.2689 6.23182 13.2688C5.90345 13.2688 5.57831 13.2041 5.27494 13.0784C4.97158 12.9527 4.69595 12.7685 4.46379 12.5362C4.23162 12.304 4.04747 12.0283 3.92184 11.725C3.79621 11.4216 3.73157 11.0964 3.73161 10.768C3.73165 10.4397 3.79637 10.1145 3.92206 9.81115C4.04776 9.50779 4.23198 9.23215 4.4642 8.99999L9.17837 4.28582L10.3567 5.46415Z" fill="#0F1324" fill-opacity="0.6"/>
</svg>
