<svg width="12" height="12" viewBox="0 0 12 12" fill="none" xmlns="http://www.w3.org/2000/svg">
<path d="M1.33329 1.91667V10.0833H10.6666V3.08333H5.75846L4.59179 1.91667H1.33329ZM6.24146 1.91667H11.25C11.4047 1.91667 11.553 1.97812 11.6624 2.08752C11.7718 2.19692 11.8333 2.34529 11.8333 2.5V10.6667C11.8333 10.8214 11.7718 10.9697 11.6624 11.0791C11.553 11.1885 11.4047 11.25 11.25 11.25H0.749959C0.59525 11.25 0.446877 11.1885 0.33748 11.0791C0.228084 10.9697 0.166626 10.8214 0.166626 10.6667V1.33333C0.166626 1.17862 0.228084 1.03025 0.33748 0.920854C0.446877 0.811458 0.59525 0.75 0.749959 0.75H5.07479L6.24146 1.91667Z" fill="#0F1324" fill-opacity="0.6"/>
</svg>
