<svg width="14" height="15" viewBox="0 0 14 15" fill="none" xmlns="http://www.w3.org/2000/svg">
<path d="M13.6666 12.3333H0.333313V11H0.99998V6.354C0.99998 3.02867 3.68665 0.333336 6.99998 0.333336C10.3133 0.333336 13 3.02867 13 6.354V11H13.6666V12.3333ZM2.33331 11H11.6666V6.354C11.6666 3.76534 9.57731 1.66667 6.99998 1.66667C4.42265 1.66667 2.33331 3.76534 2.33331 6.354V11ZM5.33331 13H8.66665C8.66665 13.442 8.49105 13.866 8.17849 14.1785C7.86593 14.4911 7.44201 14.6667 6.99998 14.6667C6.55795 14.6667 6.13403 14.4911 5.82147 14.1785C5.50891 13.866 5.33331 13.442 5.33331 13Z" fill="#0F1324" fill-opacity="0.6"/>
</svg>
