<svg width="12" height="12" viewBox="0 0 12 12" fill="none" xmlns="http://www.w3.org/2000/svg">
<path d="M1.48321 2.30808L2.72979 3.55467C2.11156 4.38143 1.82943 5.41169 1.94019 6.43809C2.05095 7.46448 2.54637 8.41083 3.32675 9.08668C4.10713 9.76252 5.11454 10.1177 6.14624 10.0807C7.17793 10.0437 8.15732 9.61734 8.88731 8.88735C9.6173 8.15736 10.0437 7.17797 10.0807 6.14628C10.1177 5.11458 9.76248 4.10717 9.08664 3.32679C8.41079 2.54641 7.46444 2.05099 6.43805 1.94023C5.41165 1.82947 4.38139 2.1116 3.55463 2.72983L2.30746 1.48325C3.34857 0.629817 4.65376 0.164445 5.99996 0.166666C9.22171 0.166666 11.8333 2.77825 11.8333 6C11.8333 9.22175 9.22171 11.8333 5.99996 11.8333C2.77821 11.8333 0.166626 9.22175 0.166626 6C0.166626 4.59942 0.660126 3.31375 1.48321 2.30808ZM3.56629 4.39175L5.99996 6.82483L6.82479 6L4.39171 3.56633C4.99469 3.16776 5.72418 3.00728 6.43876 3.11601C7.15334 3.22473 7.80209 3.59492 8.25924 4.15479C8.71639 4.71466 8.94937 5.42434 8.913 6.14623C8.87664 6.86811 8.57352 7.55078 8.06243 8.06188C7.55133 8.57298 6.86866 8.8761 6.14677 8.91246C5.42488 8.94883 4.71521 8.71585 4.15533 8.2587C3.59546 7.80155 3.22528 7.1528 3.11655 6.43822C3.00783 5.72364 3.1683 4.99415 3.56688 4.39117L3.56629 4.39175Z" fill="#0F1324" fill-opacity="0.6"/>
</svg>
