<svg width="17" height="18" viewBox="0 0 17 18" fill="none" xmlns="http://www.w3.org/2000/svg">
<path d="M0.5 9.83336H5.5V8.16669H0.5V0.53836C0.500012 0.465956 0.518892 0.394804 0.554778 0.331919C0.590664 0.269033 0.642317 0.216584 0.704647 0.179741C0.766977 0.142899 0.837832 0.122934 0.910228 0.121815C0.982623 0.120696 1.05406 0.138462 1.1175 0.173361L16.5025 8.63503C16.5678 8.671 16.6223 8.72384 16.6602 8.78804C16.6982 8.85224 16.7182 8.92545 16.7182 9.00003C16.7182 9.0746 16.6982 9.14781 16.6602 9.21201C16.6223 9.27622 16.5678 9.32906 16.5025 9.36503L1.1175 17.8267C1.05406 17.8616 0.982623 17.8794 0.910228 17.8782C0.837832 17.8771 0.766977 17.8572 0.704647 17.8203C0.642317 17.7835 0.590664 17.731 0.554778 17.6681C0.518892 17.6052 0.500012 17.5341 0.5 17.4617V9.83336Z" fill="#0D1126" fill-opacity="0.4"/>
</svg>
