<svg width="12" height="12" viewBox="0 0 12 12" fill="none" xmlns="http://www.w3.org/2000/svg">
<path d="M6.00002 8.91667C8.13619 8.91667 10.0046 9.83541 11.0208 11.2062L9.94627 11.7143C9.11911 10.7343 7.66077 10.0833 6.00002 10.0833C4.33927 10.0833 2.88094 10.7343 2.05378 11.7143L0.979858 11.2057C1.99602 9.83483 3.86386 8.91667 6.00002 8.91667ZM6.00002 0.166666C6.77357 0.166666 7.51544 0.473957 8.06242 1.02094C8.6094 1.56792 8.91669 2.30978 8.91669 3.08333V4.83333C8.91665 5.58494 8.62646 6.30751 8.10664 6.85037C7.58682 7.39323 6.8775 7.71446 6.12661 7.74708L6.00002 7.75C5.22648 7.75 4.48461 7.44271 3.93763 6.89573C3.39065 6.34875 3.08336 5.60688 3.08336 4.83333V3.08333C3.0834 2.33173 3.37359 1.60916 3.89341 1.0663C4.41323 0.523437 5.12255 0.202202 5.87344 0.169583L6.00002 0.166666ZM6.00002 1.33333C5.55365 1.33331 5.12414 1.50386 4.79937 1.81008C4.4746 2.11631 4.27913 2.53506 4.25294 2.98067L4.25003 3.08333V4.83333C4.24959 5.28886 4.42679 5.72661 4.74397 6.05356C5.06116 6.38051 5.49334 6.5709 5.94867 6.58427C6.404 6.59763 6.8466 6.43293 7.18242 6.12515C7.51825 5.81737 7.72082 5.39077 7.74711 4.936L7.75002 4.83333V3.08333C7.75002 2.6192 7.56565 2.17408 7.23746 1.8459C6.90927 1.51771 6.46415 1.33333 6.00002 1.33333Z" fill="#0F1324" fill-opacity="0.6"/>
</svg>
